<svg width="45" height="45" viewBox="0 0 45 45" fill="none" xmlns="http://www.w3.org/2000/svg">
<path fill-rule="evenodd" clip-rule="evenodd" d="M33.4387 11.5612C31.2753 9.3981 28.5191 7.92504 25.5185 7.32833C22.5179 6.73163 19.4077 7.03808 16.5813 8.20893C13.7549 9.37978 11.3391 11.3624 9.63945 13.9062C7.93981 16.45 7.03263 19.4407 7.03263 22.5C7.03263 25.5593 7.93981 28.55 9.63945 31.0938C11.3391 33.6376 13.7549 35.6202 16.5813 36.7911C19.4077 37.9619 22.5179 38.2684 25.5185 37.6717C28.5191 37.075 31.2753 35.6019 33.4387 33.4387C33.7053 33.1903 34.0579 33.0551 34.4222 33.0615C34.7865 33.068 35.1341 33.2156 35.3918 33.4732C35.6494 33.7309 35.797 34.0785 35.8035 34.4428C35.8099 34.8071 35.6746 35.1597 35.4262 35.4262C28.2881 42.5662 16.7137 42.5662 9.57375 35.4262C2.43375 28.2881 2.43375 16.7137 9.57375 9.57375C16.7119 2.43375 28.2862 2.43375 35.4262 9.57375C37.1262 11.2695 38.4743 13.2844 39.3933 15.5026C40.3123 17.7209 40.784 20.0989 40.7812 22.5C40.7812 24.3281 40.2262 26.0381 39.2644 27.3206C38.3006 28.605 36.8644 29.5312 35.1562 29.5312C33.4613 29.5312 32.0325 28.6181 31.0687 27.3488C30.0521 29.1458 28.4961 30.5776 26.6209 31.4417C24.7458 32.3059 22.6464 32.5585 20.6198 32.1639C18.5931 31.7693 16.7419 30.7474 15.3279 29.2429C13.914 27.7383 13.0089 25.8273 12.7407 23.7801C12.4726 21.7329 12.8549 19.6532 13.8337 17.8353C14.8124 16.0173 16.338 14.5531 18.1946 13.6498C20.0512 12.7466 22.1448 12.4499 24.1793 12.8019C26.2138 13.1539 28.086 14.1367 29.5312 15.6112V15.4688C29.5312 15.0958 29.6794 14.7381 29.9431 14.4744C30.2069 14.2107 30.5645 14.0625 30.9375 14.0625C31.3105 14.0625 31.6681 14.2107 31.9319 14.4744C32.1956 14.7381 32.3438 15.0958 32.3438 15.4688V22.5C32.3438 23.7787 32.7338 24.8812 33.2981 25.6331C33.8606 26.385 34.5338 26.7188 35.1562 26.7188C35.7787 26.7188 36.45 26.385 37.0144 25.6331C37.5769 24.8831 37.9688 23.7769 37.9688 22.5C37.9718 20.4681 37.5732 18.4557 36.7957 16.5784C36.0183 14.7011 34.8774 12.9961 33.4387 11.5612ZM29.5312 22.5C29.5312 20.6352 28.7905 18.8468 27.4718 17.5282C26.1532 16.2095 24.3648 15.4688 22.5 15.4688C20.6352 15.4688 18.8468 16.2095 17.5282 17.5282C16.2095 18.8468 15.4688 20.6352 15.4688 22.5C15.4688 24.3648 16.2095 26.1532 17.5282 27.4718C18.8468 28.7905 20.6352 29.5312 22.5 29.5312C24.3648 29.5312 26.1532 28.7905 27.4718 27.4718C28.7905 26.1532 29.5312 24.3648 29.5312 22.5Z" fill="white"/>
</svg>
