<svg width="45" height="45" viewBox="0 0 45 45" fill="none" xmlns="http://www.w3.org/2000/svg">
<g clip-path="url(#clip0_34_23)">
<path d="M36 8.24997L5.43748 20.0625C3.37498 20.8125 3.37498 22.125 5.06248 22.5L12.75 24.9375L15.75 33.9375C16.125 34.875 15.9375 35.25 16.875 35.25C17.625 35.25 18 34.875 18.375 34.5C18.5625 34.3125 20.25 32.625 22.125 30.75L30 36.5625C31.5 37.3125 32.4375 36.9375 32.8125 35.25L38.0625 10.6875C38.625 8.62497 37.3125 7.49997 36 8.24997ZM32.0625 13.875L17.4375 27.1875L16.875 33.375L13.875 24.375L31.125 13.5C31.875 12.9375 32.625 13.3125 32.0625 13.875Z" fill="white"/>
</g>
<defs>
<clipPath id="clip0_34_23">
<rect width="45" height="45" fill="white"/>
</clipPath>
</defs>
</svg>
